<svg width="64" height="64" viewBox="0 0 64 64" fill="none" xmlns="http://www.w3.org/2000/svg">
<g clip-path="url(#clip0_212_1335)">
<path d="M62.125 52.7501H60.25V20.8751C60.25 19.8396 59.4105 19.0001 58.375 19.0001H46.5429C46.8451 17.6098 47 16.1794 47 14.7248V5.62506C47 4.78794 46.4451 4.05219 45.6401 3.82219L32.5151 0.0721875C32.1785 -0.0240625 31.8215 -0.0240625 31.4849 0.0721875L18.3599 3.82219C17.5549 4.05219 17 4.78794 17 5.62506V14.7248C17 16.1793 17.1549 17.6098 17.4571 19.0001H5.625C4.5895 19.0001 3.75 19.8396 3.75 20.8751V52.7501H1.875C0.8395 52.7501 0 53.5896 0 54.6251C0 59.7944 4.20563 64.0001 9.375 64.0001H54.625C59.7944 64.0001 64 59.7944 64 54.6251C64 53.5896 63.1605 52.7501 62.125 52.7501ZM20.75 7.03931L32 3.82506L43.25 7.03931V14.7248C43.25 21.7493 38.6509 28.0222 32 30.1656C25.3491 28.0222 20.75 21.7492 20.75 14.7248V7.03931ZM7.5 22.7501H18.6768C20.2394 26.2994 22.8941 29.4878 26.375 31.6624V41.5001H22.3025C21.5285 39.3178 19.4444 37.7501 17 37.7501C13.8984 37.7501 11.375 40.2734 11.375 43.3751C11.375 46.4767 13.8984 49.0001 17 49.0001C19.4444 49.0001 21.5285 47.4323 22.3025 45.2501H28.25C29.2855 45.2501 30.125 44.4106 30.125 43.3751V33.4864C30.571 33.6484 31.0241 33.7963 31.4849 33.9279C31.6532 33.9761 31.8266 34.0001 32 34.0001C32.1734 34.0001 32.3468 33.9761 32.5151 33.9279C32.9759 33.7963 33.429 33.6484 33.875 33.4864V43.3751C33.875 44.4106 34.7145 45.2501 35.75 45.2501H41.6975C42.4715 47.4323 44.5556 49.0001 47 49.0001C50.1016 49.0001 52.625 46.4767 52.625 43.3751C52.625 40.2734 50.1016 37.7501 47 37.7501C44.5556 37.7501 42.4715 39.3178 41.6975 41.5001H37.625V31.6624C41.1034 29.4894 43.7593 26.3024 45.3232 22.7501H56.5V52.7501H7.5V22.7501ZM18.875 43.3751C18.875 44.4089 18.0339 45.2501 17 45.2501C15.9661 45.2501 15.125 44.4089 15.125 43.3751C15.125 42.3412 15.9661 41.5001 17 41.5001C18.0339 41.5001 18.875 42.3412 18.875 43.3751ZM45.125 43.3751C45.125 42.3412 45.9661 41.5001 47 41.5001C48.0339 41.5001 48.875 42.3412 48.875 43.3751C48.875 44.4089 48.0339 45.2501 47 45.2501C45.9661 45.2501 45.125 44.4089 45.125 43.3751ZM54.625 60.2501H9.375C6.93038 60.2501 4.84513 58.6827 4.07125 56.5001H59.9287C59.1549 58.6827 57.0696 60.2501 54.625 60.2501Z" fill="#97D80F"/>
<path d="M30.1251 22.7501C30.6049 22.7501 31.0848 22.5671 31.4508 22.2008L38.9508 14.7008C39.6831 13.9686 39.6831 12.7814 38.9508 12.0492C38.2187 11.3169 37.0314 11.3169 36.2992 12.0492L30.1251 18.2234L27.7008 15.7993C26.9687 15.0671 25.7814 15.0671 25.0492 15.7993C24.3169 16.5316 24.3169 17.7187 25.0492 18.4509L28.7992 22.2009C29.1653 22.5671 29.6452 22.7501 30.1251 22.7501Z" fill="#97D80F"/>
</g>
<defs>
<clipPath id="clip0_212_1335">
<rect width="64" height="64" fill="white"/>
</clipPath>
</defs>
</svg>
