<svg width="64" height="64" viewBox="0 0 64 64" fill="none" xmlns="http://www.w3.org/2000/svg">
<g clip-path="url(#clip0_212_1348)">
<path d="M13.125 7.625C10.0234 7.625 7.5 10.1484 7.5 13.25V20.75C7.5 21.7855 8.3395 22.625 9.375 22.625C10.4105 22.625 11.25 21.7855 11.25 20.75V18.875H15V20.75C15 21.7855 15.8395 22.625 16.875 22.625C17.9105 22.625 18.75 21.7855 18.75 20.75V13.25C18.75 10.1484 16.2266 7.625 13.125 7.625ZM11.25 15.125V13.25C11.25 12.2161 12.0911 11.375 13.125 11.375C14.1589 11.375 15 12.2161 15 13.25V15.125H11.25Z" fill="#97D80F"/>
<path d="M26.25 7.625H24.375C23.3395 7.625 22.5 8.4645 22.5 9.5V20.75C22.5 21.7855 23.3395 22.625 24.375 22.625H26.25C30.3855 22.625 33.75 19.2605 33.75 15.125C33.75 10.9895 30.3855 7.625 26.25 7.625ZM26.25 18.875V11.375C28.3177 11.375 30 13.0573 30 15.125C30 17.1927 28.3177 18.875 26.25 18.875Z" fill="#97D80F"/>
<path d="M62.125 30.125C63.1605 30.125 64 29.2855 64 28.25V2C64 0.9645 63.1605 0.125 62.125 0.125H1.875C0.8395 0.125 0 0.9645 0 2V28.25C0 29.2855 0.8395 30.125 1.875 30.125H33.2385L34.2009 33.875H28.125C27.0895 33.875 26.25 34.7145 26.25 35.75V62C26.25 63.0355 27.0895 63.875 28.125 63.875H62.125C63.1605 63.875 64 63.0355 64 62V35.75C64 34.7145 63.1605 33.875 62.125 33.875H54.8956L47.228 30.125H62.125ZM3.75 26.375V3.875H60.25V26.375H39.5605L34.8806 24.0861C33.4468 23.3849 31.8439 24.6898 32.2406 26.2365L32.2761 26.3749H3.75V26.375ZM60.25 60.125H30V37.625H35.1632L37.9601 48.5235C38.3026 49.858 39.9237 50.3797 40.9804 49.4948L43.6484 47.2596L46.4904 50.6665C47.1536 51.4616 48.3391 51.57 49.1355 50.9017L55.6012 45.4762C56.3929 44.812 56.4977 43.6324 55.8358 42.8389L52.9888 39.4259L55.1382 37.625H60.25V60.125ZM48.9104 40.3913L51.7584 43.8054L48.1652 46.8204L45.3241 43.4146C44.6586 42.6169 43.4731 42.514 42.6802 43.1784L40.8526 44.7095L36.8828 29.2399L51.0418 36.1646L49.1459 37.7529C48.3535 38.4169 48.248 39.5973 48.9104 40.3913Z" fill="#97D80F"/>
<path d="M20.625 33.875H1.875C0.8395 33.875 0 34.7145 0 35.75V62C0 63.0355 0.8395 63.875 1.875 63.875H20.625C21.6605 63.875 22.5 63.0355 22.5 62V35.75C22.5 34.7145 21.6605 33.875 20.625 33.875ZM18.75 60.125H3.75V37.625H18.75V60.125Z" fill="#97D80F"/>
<path d="M39.375 13.25H54.375C55.4105 13.25 56.25 12.4105 56.25 11.375C56.25 10.3395 55.4105 9.5 54.375 9.5H39.375C38.3395 9.5 37.5 10.3395 37.5 11.375C37.5 12.4105 38.3395 13.25 39.375 13.25Z" fill="#97D80F"/>
<path d="M39.375 20.75H54.375C55.4105 20.75 56.25 19.9105 56.25 18.875C56.25 17.8395 55.4105 17 54.375 17H39.375C38.3395 17 37.5 17.8395 37.5 18.875C37.5 19.9105 38.3395 20.75 39.375 20.75Z" fill="#97D80F"/>
</g>
<defs>
<clipPath id="clip0_212_1348">
<rect width="64" height="64" fill="white"/>
</clipPath>
</defs>
</svg>
