<svg width="64" height="64" viewBox="0 0 64 64" fill="none" xmlns="http://www.w3.org/2000/svg">
<g clip-path="url(#clip0_212_1364)">
<path d="M55.6516 28.1552C56.8503 26.6769 57.5702 24.7955 57.5702 22.7485C57.5702 18.0061 53.712 14.1479 48.9697 14.1479C44.2275 14.1479 40.3693 18.0061 40.3693 22.7485C40.3693 24.7968 41.0902 26.6792 42.2901 28.158C41.1541 28.5202 40.0756 29.0508 39.0929 29.7315C37.5414 27.4729 34.9412 25.988 32 25.988C29.0588 25.988 26.4587 27.4729 24.9071 29.7315C23.9244 29.0506 22.8459 28.5202 21.7099 28.158C22.9098 26.6792 23.6307 24.7968 23.6307 22.7485C23.6307 18.0061 19.7725 14.1479 15.0303 14.1479C10.288 14.1479 6.42981 18.0061 6.42981 22.7485C6.42981 24.7955 7.14987 26.6768 8.34838 28.1552C3.51237 29.6978 0 34.2331 0 39.5739V50.2201C0 51.2576 0.841176 52.0988 1.87874 52.0988H16.9701V62.0599C16.9701 63.0975 17.8112 63.9386 18.8488 63.9386H45.1512C46.1888 63.9386 47.0299 63.0975 47.0299 62.0599V52.0988H62.1213C63.1588 52.0988 64 51.2576 64 50.2201V39.5739C64 34.2331 60.4876 29.6978 55.6516 28.1552ZM48.9698 17.9054C51.6403 17.9054 53.8128 20.078 53.8128 22.7485C53.8128 25.4171 51.6429 27.5886 48.9747 27.5912H48.965C46.2969 27.5886 44.127 25.4171 44.127 22.7485C44.1269 20.078 46.2994 17.9054 48.9698 17.9054ZM32 29.7455C34.6889 29.7455 36.8795 31.951 36.8413 34.6598C36.8022 37.3072 34.6374 39.4314 32 39.4314C29.3209 39.4314 27.157 37.246 27.157 34.5885C27.157 31.9537 29.2974 29.7455 32 29.7455ZM15.0303 17.9054C17.7006 17.9054 19.8732 20.078 19.8732 22.7485C19.8732 25.4171 17.7033 27.5886 15.0352 27.5912H15.0256C12.3572 27.5886 10.1874 25.4171 10.1874 22.7485C10.1873 20.078 12.3599 17.9054 15.0303 17.9054ZM3.75749 39.5739C3.75749 35.0384 7.44721 31.3487 11.9826 31.3487H18.0785C20.0702 31.3487 21.9949 32.0787 23.4845 33.3765C23.1482 35.7495 23.8242 38.1546 25.3127 39.9956C21.4194 41.2364 18.4095 44.4072 17.369 48.3413H11.7722V41.3102C11.7722 40.2726 10.931 39.4314 9.89346 39.4314C8.85589 39.4314 8.01472 40.2726 8.01472 41.3102V48.3413H3.75749V39.5739ZM43.2725 60.1812H39.515V54.6285C39.515 53.5909 38.6738 52.7497 37.6362 52.7497C36.5987 52.7497 35.7575 53.5909 35.7575 54.6285V60.1812H28.2425V54.6285C28.2425 53.5909 27.4013 52.7497 26.3638 52.7497C25.3262 52.7497 24.485 53.5909 24.485 54.6285V60.1812H20.7275V51.4137C20.7275 46.8964 24.4021 43.1889 28.9523 43.1889H35.0477C39.5917 43.1889 43.2725 46.8898 43.2725 51.4137V60.1812ZM60.2425 48.3413H55.9853V41.3102C55.9853 40.2726 55.1441 39.4314 54.1065 39.4314C53.069 39.4314 52.2278 40.2726 52.2278 41.3102V48.3413H46.631C45.5973 44.4332 42.606 41.2446 38.6873 39.9956C40.1238 38.2189 40.8632 35.8303 40.5155 33.3765C42.0052 32.0787 43.9298 31.3487 45.9215 31.3487H52.0174C56.5528 31.3487 60.2425 35.0384 60.2425 39.5739V48.3413Z" fill="#97D80F"/>
<path d="M21.8536 9.58173C22.2828 10.5261 23.3966 10.9442 24.3413 10.5146C25.2859 10.0852 25.7036 8.97151 25.2742 8.02688L22.7692 2.5159C22.3397 1.57127 21.2257 1.15343 20.2815 1.58304C19.3368 2.0124 18.9191 3.12611 19.3486 4.07075L21.8536 9.58173Z" fill="#97D80F"/>
<path d="M39.6565 10.5148C40.6022 10.9445 41.7153 10.5255 42.1442 9.58192L44.6492 4.07094C45.0786 3.1263 44.6609 2.01246 43.7163 1.58323C42.7716 1.15375 41.6578 1.57146 41.2286 2.51609L38.7236 8.02707C38.2941 8.9717 38.7118 10.0854 39.6565 10.5148Z" fill="#97D80F"/>
<path d="M31.9998 9.30883C33.0374 9.30883 33.8786 8.46765 33.8786 7.43008V1.94002C33.8786 0.902455 33.0374 0.0612793 31.9998 0.0612793C30.9623 0.0612793 30.1211 0.902455 30.1211 1.94002V7.43008C30.1211 8.46765 30.9623 9.30883 31.9998 9.30883Z" fill="#97D80F"/>
</g>
<defs>
<clipPath id="clip0_212_1364">
<rect width="64" height="64" fill="white"/>
</clipPath>
</defs>
</svg>
