<svg width="64" height="64" viewBox="0 0 64 64" fill="none" xmlns="http://www.w3.org/2000/svg">
<g clip-path="url(#clip0_212_1373)">
<path d="M62.125 20.125H54.625C53.5895 20.125 52.75 20.9645 52.75 22C52.75 23.0355 53.5895 23.875 54.625 23.875H57.5984L48.4618 33.0116C47.6389 29.1499 45.1125 25.9116 41.7096 24.1236C43.7212 22.4028 45 19.8486 45 17C45 11.8306 40.7944 7.625 35.625 7.625C30.4556 7.625 26.25 11.8306 26.25 17C26.25 19.8486 27.5287 22.4028 29.5404 24.1235C26.4012 25.773 24.0078 28.6562 23.0095 32.125C22.7747 31.8561 22.529 31.595 22.2708 31.3435C21.3514 30.4476 20.322 29.7022 19.214 29.1199C21.2231 27.399 22.5 24.8465 22.5 22C22.5 16.8306 18.2944 12.625 13.125 12.625C7.95563 12.625 3.75 16.8306 3.75 22C3.75 24.8486 5.02875 27.4028 7.04038 29.1235C2.85888 31.3208 0 35.7075 0 40.75V54.5C0 55.5355 0.8395 56.375 1.875 56.375H17.125C17.6224 56.375 18.0993 56.1775 18.4508 55.8257L32.125 42.1516L37.0493 47.0759C37.7814 47.808 38.9686 47.808 39.7009 47.0759L60.25 26.5266V29.5C60.25 30.5355 61.0895 31.375 62.125 31.375C63.1605 31.375 64 30.5355 64 29.5V22C64 20.9645 63.1605 20.125 62.125 20.125ZM30 17C30 13.8984 32.5234 11.375 35.625 11.375C38.7266 11.375 41.25 13.8984 41.25 17C41.25 20.1016 38.7266 22.625 35.625 22.625C32.5234 22.625 30 20.1016 30 17ZM7.5 22C7.5 18.8984 10.0234 16.375 13.125 16.375C16.2266 16.375 18.75 18.8984 18.75 22C18.75 25.1016 16.2266 27.625 13.125 27.625C10.0234 27.625 7.5 25.1016 7.5 22ZM16.3484 52.625H3.75V40.75C3.75 35.5806 7.95563 31.375 13.125 31.375C15.5786 31.375 17.8971 32.3176 19.6536 34.0291C21.4066 35.7374 22.4119 38.025 22.4841 40.4705C22.4861 40.5365 22.4916 40.6015 22.5001 40.6655V46.4733L16.3484 52.625ZM38.375 43.0984L33.4507 38.1741C32.7186 37.442 31.5314 37.442 30.7991 38.1741L26.25 42.7234V35.75C26.25 30.5806 30.4556 26.375 35.625 26.375C40.7944 26.375 45 30.5806 45 35.75V36.4734L38.375 43.0984Z" fill="#97D80F"/>
</g>
<defs>
<clipPath id="clip0_212_1373">
<rect width="64" height="64" fill="white"/>
</clipPath>
</defs>
</svg>
