<svg width="64" height="64" viewBox="0 0 64 64" fill="none" xmlns="http://www.w3.org/2000/svg">
<g clip-path="url(#clip0_212_1357)">
<path d="M58.4183 40.1403C59.232 37.5098 59.645 34.7767 59.645 32.0001C59.645 29.2219 59.2324 26.4897 58.4185 23.8595C61.7919 21.4818 63.9999 17.5566 63.9999 13.125C63.9999 5.88786 58.1121 0 50.8749 0C46.4458 0 42.5224 2.2055 40.1444 5.57574C37.5097 4.75899 34.7714 4.34449 31.9896 4.34449C29.2122 4.34449 26.4811 4.75712 23.8517 5.57024C21.4733 2.20312 17.5518 0 13.125 0C5.88786 0 0 5.88786 0 13.125C0 17.5492 2.20062 21.469 5.56461 23.8478C4.74849 26.4822 4.33399 29.2207 4.33399 31.9999C4.33399 34.7818 4.74737 37.5188 5.56361 40.1527C2.20037 42.5317 0 46.451 0 50.8749C0 58.112 5.88786 63.9999 13.125 63.9999C17.5513 63.9999 21.4727 61.797 23.8512 58.4304C26.4807 59.2436 29.2129 59.6554 31.9896 59.6554C34.7698 59.6554 37.5091 59.2406 40.1443 58.424C42.5224 61.7943 46.4458 63.9999 50.8749 63.9999C58.112 63.9999 63.9999 58.112 63.9999 50.8749C63.9999 46.4433 61.7918 42.518 58.4183 40.1403ZM50.8749 37.7499C49.9643 37.7499 49.0752 37.8433 48.2164 38.0207C48.3962 36.659 48.5137 35.2744 48.5695 33.8749H55.821C55.7006 35.4164 55.4323 36.9363 55.0168 38.42C53.7143 37.9859 52.3218 37.7499 50.8749 37.7499ZM19.807 39.5826C19.4633 37.7317 19.247 35.8207 19.163 33.8751H30.1147V43.2669C28.1773 43.4038 26.2683 43.7507 24.4768 44.2932C23.3477 42.3534 21.7358 40.7282 19.807 39.5826ZM8.26648 21.1402C9.12086 19.9763 10.3601 19.1618 11.7912 18.8388C12.2191 18.9433 12.6655 19 13.125 19C13.5856 19 14.033 18.9431 14.4616 18.8382C15.886 19.1601 17.1257 19.9762 17.9822 21.1411C16.5648 22.0032 14.9018 22.5 13.125 22.5C11.3476 22.5 9.68423 22.0028 8.26648 21.1402ZM13.125 15.25C12.0911 15.25 11.25 14.4088 11.25 13.375C11.25 12.3411 12.0911 11.5 13.125 11.5C14.1588 11.5 15 12.3411 15 13.375C15 14.4088 14.159 15.25 13.125 15.25ZM50.8749 15.25C49.841 15.25 48.9999 14.4088 48.9999 13.375C48.9999 12.3411 49.841 11.5 50.8749 11.5C51.9088 11.5 52.7499 12.3411 52.7499 13.375C52.7499 14.4088 51.9089 15.25 50.8749 15.25ZM49.5379 18.8381C49.9666 18.9431 50.4142 19 50.8749 19C51.3359 19 51.7836 18.943 52.2128 18.838C53.6253 19.158 54.873 19.9757 55.732 21.1412C54.3146 22.0032 52.6518 22.5 50.8749 22.5C49.0985 22.5 47.4359 22.0033 46.0187 21.1416C46.8745 19.9847 48.1252 19.1597 49.5379 18.8381ZM26.2501 13.125C26.2501 12.3655 26.1844 11.6212 26.0599 10.8967C27.0931 9.87273 28.4688 8.83973 30.1146 8.36461V17.7901C28.5861 17.6648 27.0877 17.388 25.6755 16.9687C26.0487 15.7526 26.2501 14.462 26.2501 13.125ZM38.3228 16.963C36.9049 17.3855 35.4001 17.6643 33.8646 17.7901V8.36523C35.5382 8.84923 36.9248 9.90723 37.9369 10.9144C37.8146 11.6334 37.7499 12.3717 37.7499 13.125C37.7499 14.4598 37.9507 15.7485 38.3228 16.963ZM33.8646 21.5503C35.9636 21.4022 38.0257 21.0077 39.9459 20.3846C41.0348 22.0185 42.4799 23.3952 44.1695 24.4036C44.5147 26.2586 44.7319 28.1743 44.8162 30.1251H33.8646V21.5503ZM19.8008 24.4211C21.5012 23.4123 22.9555 22.0312 24.0503 20.3902C25.9656 21.0101 28.0221 21.4027 30.1146 21.5503V30.1251H19.1617C19.2451 28.1969 19.4567 26.3001 19.795 24.465C19.7978 24.4502 19.7986 24.4357 19.8008 24.4211ZM37.7499 50.8749C37.7499 51.628 37.8146 52.3663 37.937 53.085C36.8923 54.1248 35.5124 55.1606 33.8647 55.6359V47.0269C35.3257 47.1465 36.7589 47.4053 38.116 47.794C37.8773 48.7825 37.7499 49.8142 37.7499 50.8749ZM25.8824 47.7879C27.2333 47.4025 28.6612 47.1458 30.1146 47.0265V55.6349C28.4564 55.1556 27.0777 54.1121 26.0599 53.1034C26.1844 52.3789 26.2501 51.6345 26.2501 50.875C26.2501 49.8119 26.1222 48.7783 25.8824 47.7879ZM39.5197 44.299C37.7218 43.7529 35.8092 43.4038 33.8646 43.2665V33.8749H44.8159C44.7317 35.8259 44.5145 37.7414 44.1693 39.5964C42.249 40.7427 40.6443 42.3647 39.5197 44.299ZM55.821 30.1251H48.5683C48.5127 28.7254 48.3943 27.3408 48.2148 25.9788C49.074 26.1564 49.9638 26.2499 50.8749 26.2499C52.3211 26.2499 53.7133 26.0142 55.0156 25.5802C55.4314 27.0638 55.7004 28.5833 55.821 30.1251ZM50.8749 3.74999C56.0443 3.74999 60.2499 7.95561 60.2499 13.125C60.2499 15.1595 59.5964 17.0432 58.491 18.5816C57.7189 17.6236 56.7794 16.8248 55.7228 16.2228C56.2159 15.3868 56.4999 14.4137 56.4999 13.375C56.4999 10.2734 53.9765 7.74998 50.8749 7.74998C47.7733 7.74998 45.2499 10.2734 45.2499 13.375C45.2499 14.4148 45.5347 15.3891 46.0287 16.2257C44.9707 16.8301 44.0284 17.6282 43.258 18.5807C42.1532 17.0426 41.4999 15.1592 41.4999 13.125C41.4999 7.95561 45.7055 3.74999 50.8749 3.74999ZM3.74999 13.125C3.74999 7.95561 7.95561 3.74999 13.125 3.74999C18.2943 3.74999 22.5001 7.95561 22.5001 13.125C22.5001 15.1581 21.8475 17.0405 20.7436 18.5782C19.9726 17.619 19.0341 16.8211 17.9752 16.2187C18.4667 15.3837 18.75 14.4121 18.75 13.375C18.75 10.2734 16.2266 7.74998 13.125 7.74998C10.0234 7.74998 7.49999 10.2734 7.49999 13.375C7.49999 14.4117 7.78311 15.3831 8.27436 16.218C7.21374 16.8206 6.27549 17.6182 5.50561 18.577C4.40237 17.0396 3.74999 15.1576 3.74999 13.125ZM13.125 26.2499C14.0281 26.2499 14.9101 26.1582 15.7623 25.9837C15.5832 27.3442 15.4656 28.7278 15.41 30.1251H8.15761C8.27823 28.5817 8.54836 27.0597 8.96473 25.5738C10.2727 26.0121 11.6716 26.2499 13.125 26.2499ZM8.15811 33.8751H15.4108C15.4665 35.2729 15.5846 36.6559 15.7638 38.0165C14.9112 37.8418 14.0286 37.7499 13.125 37.7499C11.6714 37.7499 10.2724 37.9879 8.96448 38.4262C8.54811 36.9406 8.27861 35.4189 8.15811 33.8751ZM3.74999 50.8749C3.74999 45.7055 7.95561 41.4999 13.125 41.4999C18.2943 41.4999 22.5001 45.7055 22.5001 50.8749C22.5001 52.9101 21.8461 54.7944 20.7402 56.333C19.9688 55.3789 19.0278 54.5803 17.9706 53.9769C18.465 53.14 18.75 52.1654 18.75 51.1249C18.75 48.0233 16.2266 45.4999 13.125 45.4999C10.0234 45.4999 7.49999 48.0233 7.49999 51.1249C7.49999 52.1669 7.78586 53.143 8.28173 53.9808C7.22499 54.5846 6.28261 55.3834 5.51099 56.3345C4.40437 54.7956 3.74999 52.9108 3.74999 50.8749ZM11.25 51.1249C11.25 50.091 12.0911 49.2499 13.125 49.2499C14.1588 49.2499 15 50.091 15 51.1249C15 52.1588 14.1588 52.9999 13.125 52.9999C12.0911 52.9999 11.25 52.1588 11.25 51.1249ZM8.27061 58.8926C9.12961 57.7348 10.3869 56.9109 11.7934 56.5893C12.2206 56.6935 12.6662 56.7499 13.125 56.7499C13.5842 56.7499 14.0303 56.6933 14.458 56.589C15.8695 56.9096 17.1231 57.7308 17.9813 58.8916C16.5641 59.7534 14.9015 60.25 13.1251 60.25C11.3494 60.25 9.68748 59.7538 8.27061 58.8926ZM46.0204 58.8926C46.8794 57.7348 48.1367 56.9109 49.5433 56.5894C49.9705 56.6934 50.4161 56.7499 50.8749 56.7499C51.3359 56.7499 51.7836 56.6929 52.2126 56.5879C53.6251 56.9079 54.8729 57.7256 55.732 58.8911C54.3146 59.7531 52.6516 60.25 50.8749 60.25C49.0993 60.25 47.4374 59.7538 46.0204 58.8926ZM50.8749 52.9999C49.841 52.9999 48.9999 52.1588 48.9999 51.1249C48.9999 50.091 49.841 49.2499 50.8749 49.2499C51.9088 49.2499 52.7499 50.091 52.7499 51.1249C52.7499 52.1588 51.9089 52.9999 50.8749 52.9999ZM58.4926 56.3295C57.7206 55.3716 56.7796 54.5744 55.7231 53.9724C56.2159 53.1364 56.4999 52.1635 56.4999 51.1249C56.4999 48.0233 53.9765 45.4999 50.8749 45.4999C47.7733 45.4999 45.2499 48.0233 45.2499 51.1249C45.2499 52.1675 45.536 53.1441 46.0324 53.9821C44.9758 54.5861 44.0315 55.3821 43.26 56.3334C42.1539 54.7948 41.4999 52.9104 41.4999 50.8749C41.4999 45.7055 45.7057 41.4999 50.875 41.4999C56.0444 41.4999 60.25 45.7055 60.25 50.8749C60.2499 52.9086 59.597 54.7915 58.4926 56.3295Z" fill="#97D80F"/>
</g>
<defs>
<clipPath id="clip0_212_1357">
<rect width="64" height="64" fill="white"/>
</clipPath>
</defs>
</svg>
