<svg width="64" height="64" viewBox="0 0 64 64" fill="none" xmlns="http://www.w3.org/2000/svg">
<g clip-path="url(#clip0_212_1369)">
<path d="M38.3048 30.4724C39.3539 29.2311 39.9838 27.6248 39.9706 25.8731C39.9412 21.98 36.6936 18.875 32.8003 18.875H32.7137V17.053C32.7137 16.0434 31.9378 15.1746 30.9293 15.1271C29.8526 15.0764 28.9637 15.9344 28.9637 17V18.875H26.3828C25.3473 18.875 24.5078 19.7145 24.5078 20.75V43.2464C24.5078 44.2835 25.3492 45.1236 26.3863 45.1214C27.2833 45.1194 28.3027 45.1169 28.9638 45.1143V46.9471C28.9638 47.9568 29.7397 48.8255 30.7482 48.873C31.8249 48.9238 32.7138 48.0658 32.7138 47.0001V45.1009C33.2736 45.0993 33.7466 45.0984 34.0601 45.0984C38.4333 45.0984 41.9913 41.5404 41.9913 37.167C41.9912 34.3545 40.5183 31.881 38.3048 30.4724ZM28.2577 22.625H32.9183C34.7392 22.625 36.2207 24.1064 36.2207 25.9273C36.2207 27.7481 34.7392 29.2295 32.9183 29.2295C32.4398 29.2295 28.2577 29.2356 28.2577 29.2356V22.625ZM34.0598 41.3483C33.0067 41.3483 30.1738 41.3591 28.2577 41.367V32.9945C28.9642 32.9916 34.0598 32.9856 34.0598 32.9856C36.3653 32.9856 38.2411 34.8614 38.2411 37.1669C38.2412 39.4725 36.3654 41.3483 34.0598 41.3483Z" fill="#97D80F"/>
<path d="M62.125 23.875C61.0895 23.875 60.25 24.7145 60.25 25.75V30.125H56.3036C55.9481 25.4738 54.2801 21.1844 51.672 17.625H58.375C59.4105 17.625 60.25 16.7855 60.25 15.75V10.9275C62.4324 10.1535 64 8.06938 64 5.625C64 2.52338 61.4766 0 58.375 0C55.2734 0 52.75 2.52338 52.75 5.625C52.75 8.06938 54.3176 10.1535 56.5 10.9275V13.875H48.2796C44.3963 10.3835 39.3898 8.11788 33.875 7.69637V3.75H38.25C39.2855 3.75 40.125 2.9105 40.125 1.875C40.125 0.8395 39.2855 0 38.25 0H25.75C24.7145 0 23.875 0.8395 23.875 1.875C23.875 2.9105 24.7145 3.75 25.75 3.75H30.125V7.69637C24.6103 8.11788 19.6038 10.3835 15.7204 13.875H7.5V10.9275C9.68237 10.1535 11.25 8.06938 11.25 5.625C11.25 2.52338 8.72663 0 5.625 0C2.52338 0 0 2.52338 0 5.625C0 8.06938 1.56763 10.1535 3.75 10.9275V15.75C3.75 16.7855 4.5895 17.625 5.625 17.625H12.328C9.72 21.1844 8.05188 25.4738 7.69637 30.125H3.75V25.75C3.75 24.7145 2.9105 23.875 1.875 23.875C0.8395 23.875 0 24.7145 0 25.75V38.25C0 39.2855 0.8395 40.125 1.875 40.125C2.9105 40.125 3.75 39.2855 3.75 38.25V33.875H7.69637C8.05188 38.5262 9.71988 42.8156 12.328 46.375H5.625C4.5895 46.375 3.75 47.2145 3.75 48.25V53.0725C1.56763 53.8465 0 55.9306 0 58.375C0 61.4766 2.52338 64 5.625 64C8.72663 64 11.25 61.4766 11.25 58.375C11.25 55.9306 9.68237 53.8465 7.5 53.0725V50.125H15.7204C19.6038 53.6165 24.6101 55.8821 30.125 56.3036V60.25H25.75C24.7145 60.25 23.875 61.0895 23.875 62.125C23.875 63.1605 24.7145 64 25.75 64H38.25C39.2855 64 40.125 63.1605 40.125 62.125C40.125 61.0895 39.2855 60.25 38.25 60.25H33.875V56.3036C39.3898 55.8821 44.3963 53.6165 48.2796 50.125H56.5V53.0725C54.3176 53.8465 52.75 55.9306 52.75 58.375C52.75 61.4766 55.2734 64 58.375 64C61.4766 64 64 61.4766 64 58.375C64 55.9306 62.4324 53.8465 60.25 53.0725V48.25C60.25 47.2145 59.4105 46.375 58.375 46.375H51.672C54.28 42.8156 55.9481 38.5262 56.3036 33.875H60.25V38.25C60.25 39.2855 61.0895 40.125 62.125 40.125C63.1605 40.125 64 39.2855 64 38.25V25.75C64 24.7145 63.1605 23.875 62.125 23.875ZM58.375 3.75C59.4089 3.75 60.25 4.59113 60.25 5.625C60.25 6.65887 59.4089 7.5 58.375 7.5C57.3411 7.5 56.5 6.65887 56.5 5.625C56.5 4.59113 57.3411 3.75 58.375 3.75ZM5.625 7.5C4.59113 7.5 3.75 6.65887 3.75 5.625C3.75 4.59113 4.59113 3.75 5.625 3.75C6.65887 3.75 7.5 4.59113 7.5 5.625C7.5 6.65887 6.65887 7.5 5.625 7.5ZM5.625 60.25C4.59113 60.25 3.75 59.4089 3.75 58.375C3.75 57.3411 4.59113 56.5 5.625 56.5C6.65887 56.5 7.5 57.3411 7.5 58.375C7.5 59.4089 6.65887 60.25 5.625 60.25ZM58.375 56.5C59.4089 56.5 60.25 57.3411 60.25 58.375C60.25 59.4089 59.4089 60.25 58.375 60.25C57.3411 60.25 56.5 59.4089 56.5 58.375C56.5 57.3411 57.3411 56.5 58.375 56.5ZM32 52.625C20.6274 52.625 11.375 43.3726 11.375 32C11.375 20.6274 20.6274 11.375 32 11.375C43.3726 11.375 52.625 20.6274 52.625 32C52.625 43.3726 43.3726 52.625 32 52.625Z" fill="#97D80F"/>
</g>
<defs>
<clipPath id="clip0_212_1369">
<rect width="64" height="64" fill="white"/>
</clipPath>
</defs>
</svg>
