<svg width="217" height="120" viewBox="0 0 217 120" fill="none" xmlns="http://www.w3.org/2000/svg">
<path d="M0.0117188 0H192.012C205.267 0 216.012 10.7452 216.012 24V96C216.012 109.255 205.267 120 192.012 120H24.0117C10.7569 120 0.0117188 109.255 0.0117188 96V0Z" fill="#2A2A2A"/>
<path d="M48.0117 51.4619H55.151L59.308 62.0973L63.5191 51.4619H70.4702L60.0033 76.6395H53.0081L55.8732 69.9679L48.0117 51.4619ZM77.7116 51.0385C72.3475 51.0385 68.9565 55.8492 68.9565 60.6399C68.9565 66.0308 72.6743 70.3049 77.6098 70.3049C81.2915 70.3049 82.6796 68.0617 82.6796 68.0617V69.8091H88.9064V51.462H82.6796V53.1299C82.6796 53.1299 81.1309 51.0385 77.7116 51.0385ZM79.036 56.9345C81.511 56.9345 82.7882 58.8929 82.7882 60.6601C82.7882 62.5629 81.4199 64.4302 79.036 64.4302C77.0603 64.4302 75.2748 62.8156 75.2748 60.741C75.2748 58.637 76.7109 56.9345 79.036 56.9345ZM91.0509 69.809V43.3606H97.5637V53.1934C97.5637 53.1934 99.1106 51.0408 102.35 51.0408C106.314 51.0408 108.635 53.9936 108.635 58.213V69.809H102.17V59.8015C102.17 58.3735 101.49 56.9941 99.9494 56.9941C98.381 56.9941 97.5637 58.3944 97.5637 59.8015V69.8089L91.0509 69.809ZM119.74 51.0407C113.597 51.0407 109.939 55.7117 109.939 60.7162C109.939 66.4114 114.368 70.3048 119.763 70.3048C124.992 70.3048 129.568 66.5881 129.568 60.8117C129.568 54.4914 124.777 51.0407 119.74 51.0407ZM119.798 56.9885C121.968 56.9885 123.469 58.7958 123.469 60.723C123.469 62.3668 122.07 64.3943 119.798 64.3943C117.716 64.3943 116.154 62.7241 116.154 60.705C116.154 58.76 117.453 56.9885 119.798 56.9885ZM140.418 51.0407C134.275 51.0407 130.617 55.7117 130.617 60.7162C130.617 66.4114 135.046 70.3048 140.441 70.3048C145.67 70.3048 150.246 66.5881 150.246 60.8117C150.246 54.4914 145.455 51.0407 140.418 51.0407ZM140.476 56.9885C142.646 56.9885 144.148 58.7958 144.148 60.723C144.148 62.3668 142.749 64.3943 140.476 64.3943C138.394 64.3943 136.832 62.7241 136.832 60.705C136.832 58.76 138.131 56.9885 140.476 56.9885Z" fill="#B272FF"/>
<path d="M155.383 70.1984C157.772 70.1984 159.708 68.2621 159.708 65.8736C159.708 63.4851 157.772 61.5488 155.383 61.5488C152.995 61.5488 151.059 63.4851 151.059 65.8736C151.059 68.2621 152.995 70.1984 155.383 70.1984Z" fill="#B272FF"/>
<path d="M161.129 59.9603H153.344L160.254 43.3606H168.01L161.129 59.9603Z" fill="#B272FF"/>
</svg>
