<svg width="217" height="120" viewBox="0 0 217 120" fill="none" xmlns="http://www.w3.org/2000/svg">
<path d="M0.957031 0H192.957C206.212 0 216.957 10.7452 216.957 24V96C216.957 109.255 206.212 120 192.957 120H24.957C11.7022 120 0.957031 109.255 0.957031 96V0Z" fill="#2A2A2A"/>
<path d="M73.7158 66.3348C70.7651 66.3348 68.9365 63.6865 68.9365 60.0223C68.9365 56.3945 70.4754 53.6917 73.6976 53.6917C75.8156 53.6917 77.2096 55.0522 77.4633 56.848H82.3874C82.1337 54.6168 81.1381 52.6578 79.4003 51.3518C77.9882 50.2634 76.033 49.5923 73.7158 49.5923C67.7779 49.5923 63.9219 54.0908 63.9219 60.0223C63.9219 65.9902 67.9046 70.3617 73.7522 70.3617C76.5579 70.3617 78.6035 69.5818 80.1244 68.0943C81.482 66.7883 82.3874 64.9744 82.5139 62.9972H77.5898C77.3728 64.9381 75.9243 66.3348 73.7158 66.3348Z" fill="white"/>
<path d="M91.5981 55.27C87.036 55.27 83.9766 58.5351 83.9766 62.8341C83.9766 67.1331 87.036 70.3982 91.5981 70.3982C96.1961 70.3982 99.2014 67.1331 99.2014 62.8341C99.2014 58.5351 96.1961 55.27 91.5981 55.27ZM91.5799 67.1513C89.6065 67.1513 88.5746 65.428 88.5746 62.8341C88.5746 60.2402 89.6065 58.4807 91.5799 58.4807C93.5532 58.4807 94.6211 60.2402 94.6211 62.8341C94.6034 65.428 93.5532 67.1513 91.5799 67.1513Z" fill="white"/>
<path d="M105.64 53.752C106.609 52.7815 106.609 51.2081 105.64 50.2376C104.671 49.2671 103.101 49.2671 102.133 50.2376C101.164 51.2081 101.164 52.7815 102.133 53.752C103.101 54.7225 104.671 54.7225 105.64 53.752Z" fill="white"/>
<path d="M99.9492 58.8618H101.85V69.9449H106.376V55.6511H99.9492V58.8618Z" fill="white"/>
<path d="M117.505 55.2336C115.532 55.2336 114.155 56.068 113.106 57.6099H113.015V55.6509H108.652V69.9265H113.196V62.0359C113.196 60.2764 114.192 59.0248 115.694 59.0248C117.179 59.0248 117.921 60.0587 117.921 61.5643V69.9265H122.465V60.6392C122.465 57.4648 120.619 55.2336 117.505 55.2336Z" fill="white"/>
<path d="M133.107 49.9915H124.617V69.9266H132.8C135.298 69.9266 137.307 69.2917 138.865 68.1126C141.091 66.4075 142.322 63.5959 142.322 60.0769C142.322 53.9821 138.611 49.9915 133.107 49.9915ZM132.438 65.7908H129.541V54.1272H132.492C135.588 54.1272 137.344 56.4672 137.344 60.095C137.326 63.741 135.66 65.7908 132.438 65.7908Z" fill="white"/>
<path d="M155.777 57.1204C154.547 56.0139 152.935 55.3428 150.908 55.3428C146.563 55.3428 143.594 58.6078 143.594 62.8706C143.594 67.1877 146.49 70.4528 151.197 70.4528C153.008 70.4528 154.456 69.9812 155.651 69.1468C156.9 68.2761 157.732 67.0607 158.04 65.7729H153.623C153.225 66.6617 152.446 67.1877 151.252 67.1877C149.387 67.1877 148.337 65.9905 148.047 64.0678H158.294C158.312 61.1473 157.479 58.6804 155.777 57.1204ZM148.065 61.3469C148.373 59.6418 149.26 58.5534 150.98 58.5534C152.446 58.5534 153.515 59.6418 153.678 61.3469H148.065Z" fill="white"/>
<path d="M167.235 61.0021C165.424 60.6756 163.813 60.5304 163.813 59.5328C163.813 58.6439 164.682 58.2267 165.786 58.2267C167.036 58.2267 167.905 58.6258 168.068 59.8955H172.249C172.032 57.084 169.86 55.3245 165.823 55.3245C162.455 55.3245 159.668 56.8844 159.668 59.8955C159.668 63.2513 162.311 63.9043 164.791 64.3215C166.692 64.648 168.411 64.7932 168.411 66.081C168.411 67.0061 167.543 67.4959 166.185 67.4959C164.682 67.4959 163.741 66.8066 163.56 65.3736H159.27C159.414 68.5299 162.021 70.4526 166.203 70.4526C169.932 70.4526 172.684 68.8382 172.684 65.7183C172.702 62.0723 169.751 61.4192 167.235 61.0021Z" fill="white"/>
<path d="M183.362 61.0202L188.377 55.6509H183.145L178.909 60.476V49.9915H174.438V69.9447H178.909V65.555L180.285 64.1038L183.706 69.9447H188.956L183.362 61.0202Z" fill="white"/>
<path d="M43.9696 61.3465C44.7295 61.3465 45.3455 60.7293 45.3455 59.9679C45.3455 59.2065 44.7295 58.5894 43.9696 58.5894C43.2098 58.5894 42.5938 59.2065 42.5938 59.9679C42.5938 60.7293 43.2098 61.3465 43.9696 61.3465Z" fill="#F8BF1E"/>
<path d="M54.9423 61.3465C55.7021 61.3465 56.3181 60.7293 56.3181 59.9679C56.3181 59.2065 55.7021 58.5894 54.9423 58.5894C54.1824 58.5894 53.5664 59.2065 53.5664 59.9679C53.5664 60.7293 54.1824 61.3465 54.9423 61.3465Z" fill="#F8BF1E"/>
<path d="M54.9423 72.3573C55.7021 72.3573 56.3181 71.74 56.3181 70.9787C56.3181 70.2173 55.7021 69.6001 54.9423 69.6001C54.1824 69.6001 53.5664 70.2173 53.5664 70.9787C53.5664 71.74 54.1824 72.3573 54.9423 72.3573Z" fill="#F8BF1E"/>
<path d="M58.9767 48.7037C58.8319 46.6902 57.2207 45.0577 55.2112 44.9126C53.9259 44.8219 52.7672 45.3117 51.9526 46.1461C51.3371 46.7809 50.5043 47.1619 49.6172 47.1619H49.2914C48.3862 47.1619 47.5354 46.7809 46.9017 46.1279C46.1595 45.3661 45.1276 44.9126 43.9871 44.9126C42.8466 44.9126 41.8147 45.3842 41.0724 46.1279C40.4388 46.7809 39.588 47.1619 38.6828 47.1619H38.375C37.488 47.1619 36.6371 46.8172 36.0216 46.1824C35.8949 46.0554 35.7681 45.9284 35.6414 45.8196C34.1027 44.568 31.8397 44.6042 30.3553 45.9284C28.563 47.5065 28.4906 50.2637 30.1561 51.9325C30.1742 51.9506 30.1923 51.9688 30.2104 51.9869C30.8621 52.6036 31.2061 53.4744 31.2061 54.3632V54.6715C31.2061 55.5785 30.8259 56.431 30.1742 57.0659C29.4139 57.8096 28.9613 58.8436 28.9613 59.9864C28.9613 61.1291 29.432 62.1631 30.1742 62.9068C30.8259 63.5417 31.2061 64.3942 31.2061 65.3012V65.7184C31.2061 66.6072 30.8259 67.4416 30.1923 68.0583C29.3958 68.8383 28.907 69.9448 28.9613 71.1601C29.0518 73.3006 30.7897 75.0238 32.9078 75.0964C34.1389 75.1327 35.2432 74.6429 36.0216 73.8266C36.6371 73.1918 37.4699 72.7927 38.3569 72.7927H38.7009C39.588 72.7927 40.4207 73.1736 41.0362 73.8266C41.8509 74.6792 43.0276 75.1689 44.313 75.0783C46.3224 74.9331 47.9517 73.3006 48.0966 71.269C48.2595 68.8565 46.3768 66.8611 44.0052 66.8611C42.8828 66.8611 41.8509 67.3146 41.1087 68.0583C40.475 68.6932 39.6242 69.0741 38.7371 69.0741H38.3569C37.4699 69.0741 36.6009 68.7295 35.9673 68.0765C35.9492 68.0583 35.9492 68.0583 35.9311 68.0402C35.2794 67.4053 34.8992 66.5528 34.8992 65.6458V65.283C34.8992 64.3761 35.2794 63.5235 35.9311 62.8887C36.6914 62.1449 37.144 61.111 37.144 59.9682C37.144 58.8255 36.6733 57.7915 35.9311 57.0478C35.2794 56.4129 34.8992 55.5604 34.8992 54.6534V54.3269C34.8992 53.4199 35.2794 52.5674 35.913 51.9325C35.9311 51.9144 35.9311 51.9144 35.9492 51.8962C35.9673 51.8781 35.9673 51.8781 35.9854 51.86C36.619 51.2251 37.4699 50.8441 38.375 50.8441H38.7009C39.6061 50.8441 40.4569 51.2251 41.0905 51.8781C41.8328 52.6399 42.8647 53.0934 44.0052 53.0934C45.1457 53.0934 46.1776 52.6218 46.9198 51.8781C47.5535 51.2251 48.4043 50.8441 49.3095 50.8441H49.5991C50.5043 50.8441 51.3552 51.2251 51.9888 51.8781C52.731 52.6399 53.7629 53.0934 54.9034 53.0934C57.2569 53.1116 59.1396 51.1162 58.9767 48.7037Z" fill="#F8BF1E"/>
</svg>
