<svg width="217" height="120" viewBox="0 0 217 120" fill="none" xmlns="http://www.w3.org/2000/svg">
<path d="M0.0703125 0H192.07C205.325 0 216.07 10.7452 216.07 24V96C216.07 109.255 205.325 120 192.07 120H24.0703C10.8155 120 0.0703125 109.255 0.0703125 96V0Z" fill="#2A2A2A"/>
<path d="M99.4214 61.0499C99.4214 66.8048 94.9754 71.0454 89.5193 71.0454C84.0631 71.0454 79.6172 66.8048 79.6172 61.0499C79.6172 55.2545 84.0631 51.0544 89.5193 51.0544C94.9754 51.0544 99.4214 55.2545 99.4214 61.0499ZM95.0867 61.0499C95.0867 57.4537 92.5099 54.9932 89.5193 54.9932C86.5286 54.9932 83.9519 57.4537 83.9519 61.0499C83.9519 64.6101 86.5286 67.1067 89.5193 67.1067C92.5099 67.1067 95.0867 64.6056 95.0867 61.0499Z" fill="#EA4335"/>
<path d="M120.785 61.0499C120.785 66.8048 116.339 71.0454 110.883 71.0454C105.426 71.0454 100.98 66.8048 100.98 61.0499C100.98 55.259 105.426 51.0544 110.883 51.0544C116.339 51.0544 120.785 55.2545 120.785 61.0499ZM116.45 61.0499C116.45 57.4537 113.873 54.9932 110.883 54.9932C107.892 54.9932 105.315 57.4537 105.315 61.0499C105.315 64.6101 107.892 67.1067 110.883 67.1067C113.873 67.1067 116.45 64.6056 116.45 61.0499Z" fill="#FBBC05"/>
<path d="M141.255 51.6583V69.6033C141.255 76.985 136.956 79.9999 131.874 79.9999C127.089 79.9999 124.21 76.7597 123.124 74.1099L126.898 72.5191C127.57 74.1459 129.217 76.0657 131.869 76.0657C135.122 76.0657 137.138 74.0333 137.138 70.2072V68.7696H136.987C136.017 69.9819 134.148 71.0409 131.789 71.0409C126.854 71.0409 122.332 66.6876 122.332 61.086C122.332 55.4438 126.854 51.0544 131.789 51.0544C134.143 51.0544 136.012 52.1135 136.987 53.2897H137.138V51.6628H141.255V51.6583ZM137.446 61.086C137.446 57.5664 135.127 54.9932 132.176 54.9932C129.186 54.9932 126.68 57.5664 126.68 61.086C126.68 64.5695 129.186 67.1067 132.176 67.1067C135.127 67.1067 137.446 64.5695 137.446 61.086Z" fill="#4285F4"/>
<path d="M148.044 41.1401V70.4326H143.816V41.1401H148.044Z" fill="#34A853"/>
<path d="M164.518 64.3398L167.883 66.6111C166.797 68.238 164.18 71.041 159.659 71.041C154.051 71.041 149.863 66.6517 149.863 61.0455C149.863 55.1014 154.087 51.05 159.173 51.05C164.296 51.05 166.801 55.178 167.62 57.4088L168.07 58.5444L154.874 64.0784C155.885 66.0838 157.456 67.1068 159.659 67.1068C161.866 67.1068 163.397 66.0072 164.518 64.3398ZM154.162 60.7436L162.983 57.0347C162.498 55.7864 161.038 54.9167 159.32 54.9167C157.117 54.9167 154.051 56.886 154.162 60.7436Z" fill="#EA4335"/>
<path d="M63.6155 58.4497V54.2091H77.7276C77.8656 54.9482 77.9368 55.8224 77.9368 56.7688C77.9368 59.9504 77.0779 63.8846 74.3097 66.6877C71.6173 69.5268 68.1771 71.041 63.6199 71.041C55.1731 71.041 48.0703 64.0739 48.0703 55.5205C48.0703 46.9671 55.1731 40 63.6199 40C68.2928 40 71.6217 41.8567 74.1228 44.2767L71.1678 47.269C69.3743 45.5656 66.9444 44.2406 63.6155 44.2406C57.4473 44.2406 52.623 49.2744 52.623 55.5205C52.623 61.7666 57.4473 66.8004 63.6155 66.8004C67.6164 66.8004 69.895 65.1735 71.3547 63.6954C72.5385 62.4966 73.3173 60.7841 73.6244 58.4452L63.6155 58.4497Z" fill="#4285F4"/>
</svg>
