<svg width="216" height="120" viewBox="0 0 216 120" fill="none" xmlns="http://www.w3.org/2000/svg">
<path d="M0 0H192C205.255 0 216 10.7452 216 24V96C216 109.255 205.255 120 192 120H24C10.7452 120 0 109.255 0 96V0Z" fill="#2A2A2A"/>
<path d="M166.314 72.7785C166.387 72.7792 166.46 72.7648 166.528 72.7361C166.596 72.7074 166.658 72.665 166.709 72.6117C166.759 72.5583 166.799 72.495 166.824 72.4258C166.85 72.3566 166.861 72.2828 166.856 72.2092C166.856 71.8055 166.613 71.6126 166.113 71.6126H165.306V73.7263H165.609V72.8049H165.983L165.991 72.8162L166.57 73.7263H166.895L166.272 72.7843L166.314 72.7785ZM165.962 72.5667H165.61V71.8521H166.057C166.287 71.8521 166.55 71.8898 166.55 72.1917C166.55 72.5389 166.284 72.5667 165.961 72.5667M48 49.6661H52.4828V65.9949H60.7817V70.1318H48V49.6661ZM62.7636 56.2555H67.0701V70.1241H62.7636V56.2555ZM64.9169 49.3606C65.411 49.3607 65.8939 49.5073 66.3047 49.7818C66.7155 50.0564 67.0356 50.4466 67.2246 50.9031C67.4136 51.3596 67.463 51.8619 67.3666 52.3465C67.2701 52.831 67.0322 53.2761 66.6828 53.6255C66.3334 53.9748 65.8882 54.2127 65.4036 54.309C64.919 54.4054 64.4168 54.3559 63.9603 54.1668C63.5038 53.9777 63.1137 53.6575 62.8392 53.2467C62.5647 52.8359 62.4182 52.3529 62.4182 51.8588C62.4182 51.5307 62.4828 51.2058 62.6084 50.9027C62.734 50.5996 62.9181 50.3241 63.1501 50.0921C63.3821 49.8602 63.6576 49.6762 63.9607 49.5506C64.2639 49.4251 64.5888 49.3605 64.9169 49.3606ZM85.0847 49.6629H89.3912V61.8938L94.2719 56.2492H99.5518L93.8995 62.6699L99.4329 70.13H94.0202L89.4486 63.2746H89.3921V70.1291H85.0856L85.0847 49.6629ZM69.458 56.2568H73.5936V58.1521H73.6523C74.0654 57.4444 74.6629 56.8622 75.3811 56.4676C76.0993 56.0731 76.9112 55.881 77.73 55.9118C82.0971 55.9118 82.901 58.7851 82.901 62.5178V70.1233H78.5945V63.3805C78.5945 61.7709 78.5649 59.702 76.3515 59.702C74.113 59.702 73.7676 61.4546 73.7676 63.2634V70.1215H69.4611L69.458 56.2568Z" fill="#67B3FF"/>
<path d="M108.621 61.5767C108.629 61.2273 108.566 60.8799 108.436 60.5554C108.306 60.231 108.112 59.9364 107.864 59.6893C107.617 59.4423 107.322 59.248 106.998 59.1183C106.673 58.9885 106.326 58.926 105.977 58.9344C105.224 58.8876 104.483 59.1384 103.914 59.6326C103.345 60.1269 102.993 60.8251 102.933 61.5767H108.621ZM112.268 67.7224C111.553 68.5902 110.653 69.288 109.635 69.7652C108.616 70.2424 107.504 70.4872 106.379 70.4817C102.073 70.4817 98.625 67.6071 98.625 63.1557C98.625 58.7043 102.072 55.8311 106.379 55.8311C110.405 55.8311 112.929 58.7021 112.929 63.1557V64.506H102.933C103.058 65.2717 103.455 65.9667 104.051 66.4629C104.648 66.9591 105.403 67.223 106.179 67.206C106.792 67.2022 107.394 67.0452 107.931 66.7492C108.468 66.4532 108.922 66.0276 109.252 65.5113L112.268 67.7224ZM121.905 59.6078C119.752 59.6078 118.46 61.0455 118.46 63.1404C118.46 65.2354 119.751 66.6745 121.905 66.6745C124.059 66.6745 125.353 65.239 125.353 63.1404C125.353 61.0419 124.061 59.6078 121.905 59.6078ZM129.318 70.1214H125.353V68.2822H125.295C124.797 68.9512 124.152 69.4963 123.41 69.8751C122.667 70.2539 121.847 70.4561 121.013 70.466C116.876 70.466 114.15 67.4797 114.15 63.2566C114.15 59.3781 116.562 55.8167 120.527 55.8167C122.309 55.8167 123.974 56.3043 124.951 57.656H125.007V49.6616H129.318L129.318 70.1214ZM158.391 70.1295H154.084V63.3854C154.084 61.7772 154.056 59.7069 151.845 59.7069C149.602 59.7069 149.259 61.4591 149.259 63.2683V70.1291H144.952V56.2604H149.086V58.1557H149.144C149.558 57.4483 150.156 56.8663 150.874 56.4718C151.592 56.0773 152.404 55.885 153.223 55.9154C157.588 55.9154 158.393 58.7864 158.393 62.5214L158.391 70.1295ZM140.093 54.3646C139.599 54.3647 139.115 54.2182 138.704 53.9437C138.293 53.6692 137.973 53.2789 137.784 52.8223C137.595 52.3657 137.545 51.8632 137.641 51.3784C137.738 50.8936 137.976 50.4483 138.325 50.0987C138.674 49.7491 139.12 49.511 139.604 49.4145C140.089 49.318 140.592 49.3674 141.048 49.5565C141.505 49.7455 141.895 50.0658 142.17 50.4767C142.445 50.8876 142.591 51.3708 142.592 51.8651C142.592 52.1933 142.527 52.5182 142.402 52.8215C142.276 53.1247 142.092 53.4002 141.86 53.6323C141.628 53.8645 141.352 54.0486 141.049 54.1742C140.746 54.2999 140.421 54.3646 140.093 54.3646ZM142.246 70.1295H137.935V56.2604H142.246V70.1295ZM160.538 45.3672H135.771C135.209 45.3609 134.667 45.578 134.265 45.9708C133.863 46.3636 133.633 46.9 133.626 47.4621V72.3317C133.633 72.8941 133.863 73.4308 134.265 73.8241C134.667 74.2173 135.209 74.4348 135.771 74.4288H160.538C161.101 74.4359 161.645 74.219 162.049 73.8258C162.452 73.4326 162.683 72.8952 162.691 72.3317V47.4603C162.683 46.8971 162.452 46.3601 162.048 45.9673C161.644 45.5745 161.101 45.358 160.538 45.3654M165.999 70.671C165.475 70.676 164.974 70.8883 164.606 71.2615C164.238 71.6347 164.033 72.1383 164.036 72.6623C164.038 73.1863 164.248 73.6879 164.62 74.0575C164.991 74.4271 165.494 74.6346 166.018 74.6346C166.542 74.6346 167.044 74.4271 167.416 74.0575C167.787 73.6879 167.997 73.1863 168 72.6623C168.002 72.1383 167.797 71.6347 167.429 71.2615C167.061 70.8883 166.561 70.676 166.037 70.671H165.999ZM165.999 74.4078C165.655 74.4135 165.317 74.3172 165.028 74.131C164.74 73.9448 164.512 73.6771 164.375 73.3618C164.239 73.0465 164.198 72.6977 164.26 72.3595C164.321 72.0213 164.482 71.709 164.721 71.4619C164.96 71.2149 165.266 71.0442 165.602 70.9716C165.938 70.8989 166.288 70.9275 166.608 71.0537C166.928 71.18 167.203 71.3981 167.398 71.6807C167.594 71.9633 167.702 72.2975 167.707 72.6412V72.6704C167.717 73.1212 167.547 73.5574 167.235 73.883C166.923 74.2087 166.495 74.3971 166.044 74.4069H165.999" fill="#67B3FF"/>
</svg>
