<svg width="216" height="120" viewBox="0 0 216 120" fill="none" xmlns="http://www.w3.org/2000/svg">
<path d="M0 0H192C205.255 0 216 10.7452 216 24V96C216 109.255 205.255 120 192 120H24C10.7452 120 0 109.255 0 96V0Z" fill="#2A2A2A"/>
<path d="M55.602 71.2548H51.0803V59.9827H48V56.3127H51.0802V53.7013C51.0802 50.6067 52.4425 48.3873 56.952 48.3873C57.9058 48.3873 59.4031 48.5796 59.4031 48.5796V51.9873H57.8304C56.2279 51.9873 55.6022 52.4748 55.6022 53.8224V56.3127H59.3431L59.01 59.9827H55.6021L55.602 71.2548ZM65.9772 56.0194C65.9113 56.0194 65.8435 56.0218 65.7764 56.0235C61.5836 56.0235 59.6653 59.1774 59.6653 63.6543C59.6653 69.2941 62.1536 71.5513 65.8092 71.5513C67.9007 71.5513 69.2748 70.671 70.11 69.0282V71.2563H74.4108V56.3143H70.11V58.6122C69.428 57.1338 68.0155 56.037 65.9772 56.0194ZM67.0708 59.5502C68.8318 59.5502 69.8887 60.7785 69.8887 62.8678L69.8928 65.0018C69.8928 66.41 69.0198 68.0575 67.0708 68.0575C64.0744 68.0575 64.1544 64.8221 64.1544 63.7444C64.1544 60.1196 65.7509 59.5502 67.0708 59.5502ZM76.1477 63.7861C76.1477 61.9704 76.0608 56.0292 83.8013 56.0292C86.9084 56.0292 88.2059 57.0171 88.2059 57.0171L87.1631 60.2515C87.1631 60.2515 85.8673 59.538 84.1789 59.538C82.0164 59.538 80.6365 60.7916 80.6365 62.9973L80.6389 64.5789C80.6389 66.6984 81.9703 68.1132 84.1834 68.1132C85.7215 68.1132 87.1392 67.3929 87.1392 67.3929L88.1794 70.5597C88.1794 70.5597 86.993 71.5539 83.823 71.5539C76.4528 71.5539 76.1478 66.2235 76.1478 63.7861H76.1477ZM113.423 56.0235C117.616 56.0235 119.565 59.1774 119.565 63.6543C119.565 69.2941 117.076 71.5513 113.421 71.5513C111.329 71.5513 109.783 70.6711 108.948 69.0282V71.2563L104.701 71.2547V48.8416L109.21 48.4484V58.4097C109.861 56.667 111.999 56.0235 113.423 56.0235ZM112.159 59.5502C110.398 59.5502 109.21 60.7785 109.21 62.8678L109.206 65.0018C109.203 66.41 110.028 68.0575 112.159 68.0575C115.155 68.0575 115.075 64.8221 115.075 63.7444C115.075 60.1196 113.479 59.5502 112.159 59.5502ZM96.0292 56.0359C91.2736 56.0359 88.7629 58.6287 88.7629 63.2365V64.0926C88.7629 70.073 92.2886 71.6127 96.492 71.6127C100.578 71.6127 102.427 70.47 102.427 70.47L101.583 67.4268C101.583 67.4268 99.4079 68.3523 97.0326 68.3523C94.5702 68.3523 93.5112 67.7247 93.2398 65.3583H102.787V62.9169C102.787 57.9187 99.9697 56.0358 96.029 56.0358L96.0292 56.0359ZM96.1438 59.0832C97.7899 59.0832 98.8566 60.0926 98.798 62.4337H93.248C93.3443 59.9697 94.4946 59.0832 96.1438 59.0832ZM128.555 56.0154C123.671 56.0154 121.1 58.7674 121.1 63.6993C121.1 70.4661 125.532 71.5554 128.563 71.5554C133 71.5554 135.952 69.1665 135.952 63.7608C135.952 58.1343 132.633 56.0154 128.555 56.0154ZM128.494 59.5624C130.641 59.5624 131.492 61.1696 131.492 62.999V64.5718C131.492 66.788 130.301 68.0698 128.485 68.0698C126.787 68.0698 125.594 66.8708 125.594 64.5718V62.999C125.594 60.5472 127.014 59.5624 128.494 59.5624ZM144.935 56.0154C140.051 56.0154 137.48 58.7674 137.48 63.6993C137.48 70.4661 141.912 71.5554 144.943 71.5554C149.38 71.5554 152.332 69.1665 152.332 63.7608C152.332 58.1343 149.013 56.0154 144.935 56.0154ZM144.873 59.5624C147.021 59.5624 147.872 61.1696 147.872 62.999V64.5718C147.872 66.788 146.681 68.0698 144.865 68.0698C143.167 68.0698 141.973 66.8708 141.973 64.5718V62.999C141.973 60.5472 143.394 59.5624 144.873 59.5624ZM154.036 71.2548V48.8416L158.558 48.4485V63.4712L163.044 56.3128H167.82L163.14 63.7268L168 71.2548H163.211L158.558 63.9451V71.2548H154.036Z" fill="#1877F2"/>
</svg>
