<svg width="217" height="120" viewBox="0 0 217 120" fill="none" xmlns="http://www.w3.org/2000/svg">
<path d="M0.925781 0H192.926C206.181 0 216.926 10.7452 216.926 24V96C216.926 109.255 206.181 120 192.926 120H24.9258C11.6709 120 0.925781 109.255 0.925781 96V0Z" fill="#2A2A2A"/>
<path d="M48.3127 69.0961L41.1953 72.1993V71.8862C39.8287 72.2278 38.2914 72.4271 36.8679 72.5125C30.1491 72.4555 24.8537 68.9253 24.7683 64.7687V63.2314C26.9605 66.42 31.4587 68.5837 36.8679 68.4983C38.6899 68.5837 40.5689 68.299 42.1348 67.8719L42.7611 66.3346C40.9106 66.904 38.8608 67.2741 36.8679 67.2741C30.1491 67.2741 24.8537 63.7723 24.7683 59.5303V58.2777C26.9605 61.2385 31.4587 63.3737 36.8679 63.2314C39.3163 63.3737 41.6793 62.8613 43.7006 61.9787L44.0138 60.4414C42.0494 61.4663 39.5156 62.0641 36.8964 61.9787C30.1775 62.0641 24.8822 58.5624 24.7968 54.235V52.9823C26.9889 56.0001 31.4871 58.1638 36.8964 58.2492C39.9711 58.1638 42.875 57.3382 45.2664 56.0855L45.5796 54.235C43.4159 55.8293 40.2558 56.8827 36.8964 57.025C30.1775 56.8827 24.8822 53.3524 24.7968 48.9681C24.8537 44.783 30.1775 41.2813 36.8964 41.2243C40.8821 41.2813 44.6116 42.6763 46.8038 44.9539L47.0316 45.324H48.5974L48.3696 44.9539C46.1775 41.9646 41.7647 40.0001 36.8964 40.0001C29.4373 39.9717 23.5156 44.0428 23.5156 48.9396V49.2528V65.0534C23.7719 69.8363 29.5512 73.7367 36.8394 73.7367C41.6508 73.7651 46.0066 71.8577 48.3127 69.0961Z" fill="white"/>
<path d="M45.4082 80L47.9135 69.3523L40.7107 72.484L45.095 54.0357H36.668L38.8601 44.9539H65.7639L63.5718 54.0357H54.8031L52.9241 59.0463L62.6323 54.9752L45.4082 80ZM49.7925 67.1886L48.5398 73.452L58.8743 57.8221L50.4188 61.5801L54.1768 52.8115H62.6323L64.1981 46.235H39.7712L38.2053 52.8115H46.6608L42.5897 70.3203L49.7925 67.1886Z" fill="#FABF2C"/>
<path d="M83.6141 51.0748C83.6426 52.0712 83.3294 52.8399 82.7031 53.4093C82.0767 53.9787 81.2227 54.2634 80.1123 54.2634C79.002 54.2634 78.091 53.8933 77.4077 53.1815C76.7244 52.4698 76.3828 51.5303 76.3828 50.3915V48.541C76.3828 47.4022 76.7244 46.4627 77.3793 45.7509C78.0625 45.0392 78.9451 44.6691 80.0269 44.6691C81.1657 44.6691 82.0483 44.9538 82.7031 45.4947C83.3579 46.0641 83.671 46.8328 83.6426 47.8292V47.8577H81.8205C81.8205 47.2598 81.6782 46.8043 81.3935 46.5196C81.1088 46.2349 80.6533 46.0926 80.0554 46.0926C79.486 46.0926 79.059 46.3203 78.7458 46.7758C78.4326 47.2314 78.2618 47.8008 78.2618 48.5125V50.3915C78.2618 51.1032 78.4326 51.7011 78.7458 52.1566C79.0874 52.6121 79.5429 52.8399 80.1408 52.8399C80.7102 52.8399 81.1088 52.6975 81.3935 52.4128C81.6782 52.1281 81.8205 51.6726 81.8205 51.0748H83.6141ZM93.9201 50.3061C93.9201 51.4449 93.55 52.4128 92.8383 53.153C92.1265 53.8933 91.187 54.2634 90.0198 54.2634C88.8525 54.2634 87.9415 53.8933 87.2013 53.153C86.4895 52.4128 86.1194 51.4449 86.1194 50.3061V48.6264C86.1194 47.4876 86.4895 46.5481 87.2013 45.7794C87.913 45.0392 88.8525 44.6406 89.9913 44.6406C91.1586 44.6406 92.0981 45.0107 92.8098 45.7794C93.55 46.5196 93.8917 47.4876 93.8917 48.6264V50.3061H93.9201ZM92.0411 48.5979C92.0411 47.8577 91.8703 47.2883 91.5002 46.8043C91.1301 46.3488 90.6461 46.0926 89.9913 46.0926C89.365 46.0926 88.8525 46.3203 88.5109 46.8043C88.1692 47.2598 87.97 47.8577 87.97 48.5979V50.2776C87.97 51.0178 88.1408 51.6157 88.5109 52.0997C88.8525 52.5552 89.365 52.8114 89.9913 52.8114C90.6461 52.8114 91.1301 52.5837 91.5002 52.0997C91.8703 51.6442 92.0411 51.0178 92.0411 50.2776V48.5979ZM98.76 54.121H96.881V44.783H98.76V54.121ZM109.55 54.121H107.671L103.913 47.8292H103.884V54.121H102.006V44.783H103.884L107.642 51.0748H107.671V44.783H109.55V54.121ZM118.973 46.2349H116.297V54.121H114.418V46.2349H111.799V44.783H118.973V46.2349ZM126.717 50.0214H123.244V52.6975H127.372V54.121H121.393V44.783H127.372V46.2349H123.272V48.5694H126.746V50.0214H126.717ZM131.927 52.6975H136.112V54.121H130.048V44.783H131.927V52.6975ZM144.084 50.0214H140.61V52.6975H144.738V54.121H138.76V44.783H144.738V46.2349H140.639V48.5694H144.112V50.0214H144.084ZM154.589 52.8684C154.304 53.2385 153.877 53.5801 153.279 53.8648C152.71 54.1495 151.97 54.2918 151.059 54.2918C149.92 54.2918 149.009 53.9502 148.297 53.2385C147.585 52.5267 147.215 51.6157 147.215 50.4769V48.5125C147.215 47.3737 147.557 46.4627 148.269 45.7509C148.952 45.0392 149.863 44.6691 150.945 44.6691C152.084 44.6691 152.966 44.9538 153.564 45.4947C154.162 46.0356 154.475 46.7474 154.447 47.6584V47.6869H152.681C152.681 47.2029 152.539 46.8043 152.254 46.5196C151.97 46.2349 151.543 46.0926 151.002 46.0926C150.432 46.0926 149.977 46.3203 149.607 46.7474C149.265 47.2029 149.094 47.7723 149.094 48.4556V50.42C149.094 51.1317 149.265 51.7011 149.635 52.1566C150.005 52.6121 150.489 52.8114 151.087 52.8114C151.543 52.8114 151.884 52.7545 152.141 52.6691C152.397 52.5837 152.596 52.4698 152.738 52.3274V50.5054H150.945V49.1958H154.617V52.8684H154.589ZM159.429 50.3915V54.121H157.55V44.783H160.795C161.849 44.783 162.703 45.0392 163.301 45.5232C163.899 46.0072 164.212 46.6904 164.212 47.5445C164.212 48.0285 164.098 48.4271 163.842 48.7972C163.585 49.1388 163.215 49.4235 162.731 49.6513C163.272 49.8221 163.671 50.0783 163.927 50.4769C164.155 50.847 164.297 51.331 164.297 51.9004V52.5837C164.297 52.8399 164.326 53.1246 164.411 53.4093C164.468 53.694 164.61 53.8933 164.781 54.0356V54.178H162.845C162.674 54.0356 162.56 53.8079 162.504 53.4947C162.447 53.1815 162.418 52.8684 162.418 52.5837V51.9289C162.418 51.4733 162.304 51.1032 162.048 50.847C161.792 50.5908 161.422 50.4484 160.966 50.4484H159.429V50.3915ZM159.429 48.968H160.767C161.279 48.968 161.678 48.8541 161.934 48.6264C162.19 48.3986 162.333 48.0855 162.333 47.6299C162.333 47.2029 162.19 46.8613 161.934 46.605C161.678 46.3488 161.308 46.2349 160.795 46.2349H159.429V48.968ZM172.155 52.1281H169.137L168.511 54.1495H166.546L169.706 44.8114H171.614L174.745 54.1495H172.781L172.155 52.1281ZM169.592 50.6477H171.699L170.674 47.3452H170.646L169.592 50.6477ZM178.902 50.7331V54.121H177.023V44.783H180.61C181.692 44.783 182.518 45.0677 183.144 45.6086C183.77 46.1495 184.055 46.8897 184.055 47.7723C184.055 48.6548 183.742 49.3951 183.144 49.936C182.518 50.4769 181.692 50.7616 180.61 50.7616H178.902V50.7331ZM178.902 49.3096H180.61C181.123 49.3096 181.521 49.1673 181.806 48.8826C182.062 48.5979 182.204 48.2278 182.204 47.8008C182.204 47.3452 182.062 46.9751 181.806 46.6904C181.55 46.4057 181.151 46.2634 180.61 46.2634H178.902V49.3096ZM194.333 54.121H192.454V50.2491H188.639V54.121H186.76V44.783H188.639V48.7972H192.454V44.783H194.333V54.121Z" fill="white"/>
<path d="M79.8053 69.3807H78.638V63.2313H76.5312V62.2349H81.912V63.2313H79.8053V69.3807ZM87.6344 69.3807H86.4672V66.0498C86.4672 65.6227 86.3817 65.3096 86.2109 65.1103C86.0401 64.911 85.7839 64.7971 85.4138 64.7971C84.9298 64.7971 84.5882 64.9395 84.3604 65.2242C84.1326 65.5089 84.0188 65.9929 84.0188 66.6761V69.3523H82.88V61.7509H84.0188V63.6868C84.0188 64 83.9903 64.3131 83.9618 64.6833H84.0472C84.1896 64.427 84.4173 64.2277 84.702 64.0854C84.9867 63.943 85.2999 63.8576 85.67 63.8576C86.9796 63.8576 87.6344 64.5124 87.6344 65.8505V69.3807ZM91.5917 69.4662C90.7376 69.4662 90.0828 69.2099 89.6273 68.7259C89.1433 68.242 88.9155 67.5587 88.9155 66.7046C88.9155 65.822 89.1433 65.1388 89.5703 64.6263C89.9974 64.1139 90.6237 63.8576 91.3924 63.8576C92.1041 63.8576 92.6735 64.0854 93.0721 64.5124C93.4992 64.9395 93.6984 65.5373 93.6984 66.306V66.9324H90.0828C90.1113 67.4448 90.2536 67.8719 90.5098 68.1281C90.7661 68.4128 91.1646 68.5551 91.6486 68.5551C91.9618 68.5551 92.275 68.5267 92.5312 68.4697C92.8159 68.4128 93.1006 68.2989 93.4138 68.1566V69.096C93.1291 69.2384 92.8444 69.3238 92.5597 69.3807C92.3034 69.4377 91.9618 69.4662 91.5917 69.4662ZM91.3924 64.7402C91.0223 64.7402 90.7376 64.8541 90.5098 65.0818C90.2821 65.3096 90.1682 65.6512 90.1113 66.1067H92.5597C92.5597 65.6512 92.4458 65.3096 92.2465 65.0818C92.0472 64.8541 91.7625 64.7402 91.3924 64.7402ZM100.303 64.8256H98.9938V69.3807H97.8265V64.8256H96.944V64.2847L97.8265 63.943V63.6014C97.8265 62.9751 97.9689 62.4911 98.2821 62.1779C98.5952 61.8648 99.0507 61.7224 99.6486 61.7224C100.047 61.7224 100.446 61.7793 100.844 61.9217L100.531 62.8043C100.246 62.7188 99.9902 62.6619 99.7055 62.6619C99.4493 62.6619 99.25 62.7473 99.1362 62.8897C99.0223 63.0605 98.9653 63.2882 98.9653 63.6014V63.943H100.275V64.8256H100.303ZM105.058 69.3807L104.887 68.669H104.83C104.659 68.9252 104.432 69.1245 104.147 69.2669C103.862 69.4092 103.52 69.4946 103.15 69.4946C102.496 69.4946 102.012 69.3238 101.67 69.0106C101.328 68.6975 101.186 68.185 101.186 67.5302V63.9715H102.353V67.3025C102.353 67.7295 102.439 68.0142 102.609 68.242C102.78 68.4412 103.036 68.5551 103.407 68.5551C103.891 68.5551 104.232 68.4128 104.46 68.1281C104.688 67.8434 104.802 67.3594 104.802 66.6761V63.9715H105.969V69.3807H105.058ZM109.613 68.5267C109.898 68.5267 110.182 68.4697 110.467 68.3843V69.2384C110.353 69.2953 110.182 69.3523 109.983 69.3807C109.784 69.4092 109.585 69.4377 109.357 69.4377C108.275 69.4377 107.734 68.8683 107.734 67.7295V64.8256H106.994V64.3132L107.791 63.8861L108.189 62.7473H108.901V63.943H110.439V64.8256H108.901V67.7295C108.901 68.0142 108.958 68.2135 109.101 68.3558C109.186 68.4697 109.385 68.5267 109.613 68.5267ZM115.335 69.3807L115.165 68.669H115.108C114.937 68.9252 114.709 69.1245 114.424 69.2669C114.14 69.4092 113.798 69.4946 113.428 69.4946C112.773 69.4946 112.289 69.3238 111.947 69.0106C111.634 68.6975 111.464 68.185 111.464 67.5302V63.9715H112.631V67.3025C112.631 67.7295 112.716 68.0142 112.887 68.242C113.058 68.4412 113.314 68.5551 113.684 68.5551C114.168 68.5551 114.51 68.4128 114.738 68.1281C114.965 67.8434 115.079 67.3594 115.079 66.6761V63.9715H116.246V69.3807H115.335ZM120.631 63.8576C120.858 63.8576 121.058 63.8861 121.2 63.9146L121.086 64.9964C120.915 64.968 120.745 64.9395 120.574 64.9395C120.118 64.9395 119.748 65.0818 119.463 65.395C119.179 65.7082 119.036 66.0783 119.036 66.5623V69.3807H117.898V63.9715H118.809L118.951 64.911H119.008C119.179 64.5978 119.435 64.3416 119.72 64.1423C119.976 63.9715 120.289 63.8576 120.631 63.8576ZM124.36 69.4662C123.506 69.4662 122.851 69.2099 122.396 68.7259C121.912 68.242 121.684 67.5587 121.684 66.7046C121.684 65.822 121.912 65.1388 122.339 64.6263C122.766 64.1139 123.392 63.8576 124.161 63.8576C124.873 63.8576 125.442 64.0854 125.841 64.5124C126.268 64.9395 126.467 65.5373 126.467 66.306V66.9324H122.851C122.88 67.4448 123.022 67.8719 123.278 68.1281C123.535 68.4128 123.933 68.5551 124.417 68.5551C124.73 68.5551 125.044 68.5267 125.3 68.4697C125.584 68.4128 125.869 68.2989 126.182 68.1566V69.096C125.898 69.2384 125.613 69.3238 125.328 69.3807C125.044 69.4377 124.73 69.4662 124.36 69.4662ZM124.161 64.7402C123.791 64.7402 123.506 64.8541 123.278 65.0818C123.051 65.3096 122.937 65.6512 122.88 66.1067H125.328C125.328 65.6512 125.214 65.3096 125.015 65.0818C124.787 64.8541 124.503 64.7402 124.161 64.7402ZM135.15 66.6477C135.15 67.5302 134.923 68.2135 134.467 68.7259C134.011 69.2099 133.385 69.4662 132.588 69.4662C132.076 69.4662 131.648 69.3523 131.25 69.1245C130.851 68.8968 130.567 68.5551 130.367 68.1281C130.168 67.701 130.054 67.2171 130.054 66.6477C130.054 65.7651 130.282 65.0818 130.737 64.5978C131.193 64.1139 131.819 63.8576 132.645 63.8576C133.414 63.8576 134.04 64.1139 134.495 64.6263C134.951 65.1388 135.15 65.7936 135.15 66.6477ZM131.221 66.6477C131.221 67.9003 131.677 68.5267 132.616 68.5267C133.527 68.5267 133.983 67.9003 133.983 66.6477C133.983 65.4235 133.527 64.7971 132.616 64.7971C132.132 64.7971 131.791 64.968 131.563 65.2811C131.335 65.5943 131.221 66.0498 131.221 66.6477ZM139.193 64.8256H137.883V69.3807H136.716V64.8256H135.834V64.2847L136.716 63.943V63.6014C136.716 62.9751 136.858 62.4911 137.172 62.1779C137.485 61.8648 137.94 61.7224 138.538 61.7224C138.937 61.7224 139.335 61.7793 139.734 61.9217L139.421 62.8043C139.136 62.7188 138.88 62.6619 138.595 62.6619C138.339 62.6619 138.14 62.7473 138.026 62.8897C137.912 63.032 137.855 63.2882 137.855 63.6014V63.943H139.164V64.8256H139.193ZM147.278 69.3807H146.111V66.0498C146.111 65.6227 146.026 65.3381 145.883 65.1103C145.741 64.911 145.485 64.7971 145.143 64.7971C144.688 64.7971 144.374 64.9395 144.175 65.2242C143.976 65.5089 143.862 65.9929 143.862 66.6761V69.3807H142.723V63.9715H143.634L143.805 64.6833H143.862C144.004 64.427 144.232 64.2277 144.517 64.0854C144.801 63.943 145.115 63.8861 145.456 63.8861C146.282 63.8861 146.851 64.1708 147.108 64.7402H147.193C147.364 64.484 147.591 64.2562 147.876 64.1139C148.161 63.9715 148.503 63.8861 148.873 63.8861C149.527 63.8861 149.983 64.0569 150.296 64.3701C150.581 64.6833 150.752 65.1957 150.752 65.8505V69.3807H149.613V66.0498C149.613 65.6227 149.527 65.3381 149.385 65.1103C149.214 64.911 148.987 64.7971 148.645 64.7971C148.189 64.7971 147.876 64.9395 147.677 65.2242C147.478 65.5089 147.364 65.9359 147.364 66.5053V69.3807H147.278ZM157.072 66.6477C157.072 67.5302 156.844 68.2135 156.389 68.7259C155.933 69.2099 155.307 69.4662 154.51 69.4662C153.997 69.4662 153.57 69.3523 153.172 69.1245C152.773 68.8968 152.488 68.5551 152.289 68.1281C152.09 67.701 151.976 67.2171 151.976 66.6477C151.976 65.7651 152.204 65.0818 152.659 64.5978C153.115 64.1139 153.741 63.8576 154.567 63.8576C155.335 63.8576 155.962 64.1139 156.417 64.6263C156.844 65.1388 157.072 65.7936 157.072 66.6477ZM153.143 66.6477C153.143 67.9003 153.599 68.5267 154.538 68.5267C155.449 68.5267 155.905 67.9003 155.905 66.6477C155.905 65.4235 155.449 64.7971 154.538 64.7971C154.054 64.7971 153.712 64.968 153.485 65.2811C153.257 65.5943 153.143 66.0498 153.143 66.6477ZM163.164 69.3807H161.997V66.0498C161.997 65.6227 161.912 65.3096 161.741 65.1103C161.57 64.911 161.314 64.7971 160.944 64.7971C160.46 64.7971 160.09 64.9395 159.89 65.2242C159.691 65.5089 159.549 65.9929 159.549 66.6761V69.3807H158.41V63.9715H159.321L159.492 64.6833H159.549C159.72 64.427 159.947 64.2277 160.232 64.0854C160.517 63.943 160.858 63.8861 161.228 63.8861C162.538 63.8861 163.164 64.5409 163.164 65.879V69.3807ZM167.122 69.4662C166.268 69.4662 165.613 69.2099 165.157 68.7259C164.673 68.242 164.446 67.5587 164.446 66.7046C164.446 65.822 164.673 65.1388 165.1 64.6263C165.527 64.1139 166.154 63.8576 166.922 63.8576C167.634 63.8576 168.204 64.0854 168.602 64.5124C169.029 64.9395 169.228 65.5373 169.228 66.306V66.9324H165.613C165.641 67.4448 165.784 67.8719 166.04 68.1281C166.296 68.4128 166.695 68.5551 167.179 68.5551C167.492 68.5551 167.805 68.5267 168.061 68.4697C168.317 68.4128 168.631 68.2989 168.944 68.1566V69.096C168.659 69.2384 168.374 69.3238 168.09 69.3807C167.805 69.4377 167.492 69.4662 167.122 69.4662ZM166.894 64.7402C166.524 64.7402 166.239 64.8541 166.011 65.0818C165.784 65.3096 165.67 65.6512 165.613 66.1067H168.061C168.061 65.6512 167.947 65.3096 167.748 65.0818C167.549 64.8541 167.264 64.7402 166.894 64.7402ZM169.513 63.9715H170.766L171.876 67.0462C172.047 67.4733 172.161 67.9003 172.218 68.2704H172.246C172.275 68.0996 172.332 67.8719 172.417 67.6156C172.502 67.3594 172.901 66.1352 173.67 63.9715H174.922L172.616 70.0925C172.189 71.2028 171.506 71.7722 170.51 71.7722C170.253 71.7722 169.997 71.7437 169.769 71.6868V70.7758C169.94 70.8042 170.139 70.8327 170.367 70.8327C170.908 70.8327 171.307 70.5195 171.534 69.8647L171.734 69.3523L169.513 63.9715Z" fill="white"/>
</svg>
