<svg width="217" height="120" viewBox="0 0 217 120" fill="none" xmlns="http://www.w3.org/2000/svg">
<path d="M0.984375 0H192.984C206.239 0 216.984 10.7452 216.984 24V96C216.984 109.255 206.239 120 192.984 120H24.9844C11.7295 120 0.984375 109.255 0.984375 96V0Z" fill="#2A2A2A"/>
<path d="M122.08 53.5188C120.15 53.5188 118.634 53.9328 117.116 54.7593C117.116 50.3475 117.116 46.3497 117.255 44.9714L108.014 46.6252V47.4524L108.979 47.5902C110.219 47.8657 110.635 48.5544 110.908 50.2097C111.186 53.5188 111.047 71.1668 110.908 74.0626C113.391 74.6144 116.012 75.0284 118.633 75.0284C125.942 75.0284 130.355 70.4781 130.355 63.3082C130.355 57.6559 126.77 53.5188 122.08 53.5188ZM118.908 73.5108C118.356 73.5108 117.666 73.5108 117.253 73.3739C117.115 71.4439 116.978 63.3082 117.115 56.1391C117.942 55.8628 118.493 55.7251 119.184 55.7251C122.22 55.7251 123.875 59.3096 123.875 63.7206C123.874 69.2376 121.805 73.5108 118.908 73.5108ZM73.2579 45.5224H48.9844V46.7629L50.3638 46.9007C52.1558 47.1761 52.8463 48.2789 53.121 50.8984C53.536 55.862 53.3974 64.825 53.121 69.0974C52.8455 71.7178 52.1565 72.9591 50.3638 73.0952L48.9844 73.3723V74.4751H64.5689V73.3723L62.9139 73.0952C61.1211 72.9583 60.4314 71.7178 60.1559 69.0974C60.0173 67.3044 59.8795 64.4086 59.8795 60.8248L63.1895 60.9625C65.2586 60.9625 66.2231 62.6171 66.6372 64.9603H67.8788V55.1741H66.6372C66.2223 57.5181 65.2586 59.1719 63.1895 59.1719L59.8803 59.3104C59.8803 54.6223 60.0181 50.2105 60.1567 47.591H64.983C68.7079 47.591 70.6384 49.9342 72.0171 54.0713L73.3965 53.6573L73.2579 45.5224Z" fill="white"/>
<path d="M81.1145 53.2712C88.0118 53.2712 91.4601 57.9531 91.4601 64.1489C91.4601 70.0696 87.5976 75.0282 80.7003 75.0282C73.8037 75.0282 70.3555 70.3455 70.3555 64.1489C70.3555 58.2282 74.2171 53.2712 81.1145 53.2712ZM80.7003 54.6484C77.6654 54.6484 76.8378 58.7792 76.8378 64.1489C76.8378 69.381 78.2174 73.6494 80.9767 73.6494C84.1469 73.6494 84.9761 69.5186 84.9761 64.1489C84.9761 58.9168 83.5981 54.6484 80.7003 54.6484ZM132.15 64.2872C132.15 58.6417 135.736 53.2712 142.771 53.2712C148.563 53.2712 151.323 57.5404 151.323 63.1852H138.495C138.356 68.2797 140.839 71.9978 145.805 71.9978C148.013 71.9978 149.116 71.4484 150.496 70.4839L151.047 71.1717C149.667 73.0991 146.633 75.0282 142.771 75.0282C136.564 75.0274 132.15 70.6214 132.15 64.2872ZM138.495 61.6712L144.978 61.5328C144.978 58.7792 144.564 54.6484 142.219 54.6484C139.875 54.6484 138.632 58.5033 138.495 61.6712ZM167.74 54.3733C166.085 53.6839 163.878 53.2712 161.396 53.2712C156.293 53.2712 153.119 56.2999 153.119 59.8805C153.119 63.4611 155.461 64.9751 158.776 66.0771C162.223 67.3152 163.189 68.2797 163.189 69.932C163.189 71.5844 161.948 73.0983 159.74 73.0983C157.12 73.0983 155.188 71.5844 153.671 67.4527L152.705 67.7295L152.844 73.7877C154.499 74.4755 157.533 75.0274 160.155 75.0274C165.534 75.0274 168.984 72.2722 168.984 68.0046C168.984 65.1126 167.465 63.4611 163.879 62.0831C160.016 60.5691 158.638 59.6054 158.638 57.8147C158.638 56.0248 159.881 54.7852 161.537 54.7852C164.018 54.7852 165.673 56.2999 166.916 60.0181L167.881 59.743L167.74 54.3733ZM109.391 53.8222C107.047 52.4466 102.908 53.1336 100.702 58.0914L100.839 53.272L91.5979 55.0619V55.8881L92.5633 56.0256C93.8059 56.164 94.3563 56.8518 94.4949 58.6425C94.7705 61.9471 94.6327 67.7311 94.4949 70.6222C94.3563 72.273 93.8059 73.0991 92.5633 73.2375L91.5979 73.3758V74.4771H104.426V73.3758L102.77 73.2375C101.391 73.0991 100.977 72.273 100.839 70.6222C100.563 68.0054 100.563 62.7733 100.702 59.4686C101.391 58.5041 104.426 57.6787 107.184 59.4686L109.391 53.8222Z" fill="white"/>
</svg>
