<svg width="217" height="120" viewBox="0 0 217 120" fill="none" xmlns="http://www.w3.org/2000/svg">
<path d="M0.0429688 0H192.043C205.298 0 216.043 10.7452 216.043 24V96C216.043 109.255 205.298 120 192.043 120H24.043C10.7881 120 0.0429688 109.255 0.0429688 96V0Z" fill="#2A2A2A"/>
<path d="M61.9532 79.6355V66.9255L72.2851 40H67.8997L59.8307 61.5055L52.8317 43.7242H48.043L57.5504 66.7829V79.6355H61.9532Z" fill="#FF0000"/>
<path d="M80.9661 74.675C80.1767 75.7685 78.6857 76.6718 77.1771 76.6718C74.9494 76.6718 73.8969 74.7701 73.8969 71.8541C73.8969 68.5894 75.0722 66.4341 80.4574 66.4341H80.9661V74.675ZM85.2461 73.9143V62.0126C85.2461 55.8794 82.5097 53.9777 77.563 53.9777C74.7389 53.9777 72.1779 55.0236 70.8973 55.9745L71.7218 59.4452C73.1777 58.2883 75.0722 57.2423 77.2824 57.2423C79.7382 57.2423 80.9661 58.637 80.9661 61.965V63.4706H80.3521C72.5111 63.4706 69.4414 66.8778 69.4414 72.3137C69.4414 77.2899 72.1779 79.9999 76.1773 79.9999C78.6331 79.9999 80.1767 79.0331 81.4046 77.6385H81.6852C81.7379 78.2883 81.9133 79.0965 82.0712 79.6354H85.7373C85.5268 78.4309 85.2461 76.3232 85.2461 73.9143ZM94.9816 59.9999C95.9814 58.7479 97.5251 57.4959 99.3669 57.4959C101.033 57.4959 101.981 58.1457 101.981 60.0474V79.6354H106.366V59.6988C106.366 55.8319 104.419 53.9777 100.753 53.9777C98.139 53.9777 96.034 55.5308 95.2447 56.4816H94.9816V54.2788H90.6313V79.6354H94.9816V59.9999ZM119.153 79.9999C121.434 79.9999 122.995 79.0331 124.223 77.6385H124.504L124.837 79.6354H128.064V43.7241H123.714V54.9286C122.89 54.3739 121.504 53.9777 120.171 53.9777C114.54 53.9777 110.646 58.5419 110.646 67.9396C110.646 75.7685 113.663 79.9999 119.153 79.9999ZM123.714 74.7225C122.995 75.7209 121.837 76.6718 119.662 76.6718C116.487 76.6718 115.277 73.0585 115.277 67.1314C115.277 61.965 116.943 57.1948 120.434 57.1948C121.89 57.1948 122.837 57.591 123.714 58.3992V74.7225ZM148.465 77.9396L147.465 74.9286C146.36 75.6259 144.571 76.6243 142.133 76.6243C138.677 76.6243 136.905 73.6132 136.905 67.8921H148.57V65.7209C148.57 57.1314 145.518 53.9777 140.852 53.9777C134.906 53.9777 132.397 59.9048 132.397 68.0347C132.397 75.8319 135.958 79.9999 141.729 79.9999C144.518 79.9999 146.693 79.1916 148.465 77.9396ZM140.852 57.1948C143.343 57.1948 144.132 60.3485 144.132 64.675H136.958C137.239 60.1583 138.186 57.1948 140.852 57.1948ZM163.2 54.3263L159.358 63.5181L155.745 54.3263H151.254L156.534 66.5292L150.693 79.6354H154.973L159.2 69.1916L163.533 79.6354H168.041L162.2 66.1805L167.427 54.3263H163.2Z" fill="white"/>
</svg>
